<svg width="653" height="333" viewBox="0 0 653 333" fill="none" xmlns="http://www.w3.org/2000/svg">
<g filter="url(#filter0_d)">
<path fill-rule="evenodd" clip-rule="evenodd" d="M150.766 55.4024C146.329 55.4024 142.822 58.8905 142.822 63.1921V268.087C142.822 272.388 146.329 275.789 150.766 275.789H502.567C507.004 275.789 510.602 272.388 510.602 268.087V63.1921C510.602 58.8905 507.004 55.4024 502.567 55.4024H150.766Z" fill="#1B697B" stroke="#E96C4C" stroke-width="2.50669" stroke-linecap="round" stroke-linejoin="round"/>
<path d="M484.336 73.0219H169.033C164.61 73.0219 161.024 76.3821 161.024 80.5271V257.326C161.024 261.471 164.61 264.831 169.033 264.831H484.336C488.759 264.831 492.344 261.471 492.344 257.326V80.5271C492.344 76.3821 488.759 73.0219 484.336 73.0219Z" fill="#1B697B"/>
<path fill-rule="evenodd" clip-rule="evenodd" d="M70.1337 30.628H165.897L158.392 18.6647C153.472 10.8211 140.681 5 118.016 5C95.3504 5 82.5592 10.8211 77.6387 18.6647L70.1337 30.628Z" fill="#004153" stroke="#E96C4C" stroke-width="2"/>
<path fill-rule="evenodd" clip-rule="evenodd" d="M70.1337 50.752H165.897L158.392 38.7887C153.472 30.945 140.681 25.1239 118.016 25.1239C95.3504 25.1239 82.5591 30.945 77.6386 38.7887L70.1337 50.752Z" fill="#004153" stroke="#E96C4C" stroke-width="2"/>
<path fill-rule="evenodd" clip-rule="evenodd" d="M229.02 157.175C229.02 215.813 179.991 263.348 119.51 263.348C59.0293 263.348 10 215.813 10 157.175C10 98.5369 59.0293 51.0015 119.51 51.0015C179.991 51.0015 229.02 98.5369 229.02 157.175Z" fill="#1B697B" stroke="#E96C4C" stroke-width="2.51" stroke-linecap="round" stroke-linejoin="round"/>
<path fill-rule="evenodd" clip-rule="evenodd" d="M293.971 247.99C293.971 285.195 262.862 315.355 224.488 315.355C186.115 315.355 155.006 285.195 155.006 247.99C155.006 210.785 186.115 180.625 224.488 180.625C262.862 180.625 293.971 210.785 293.971 247.99Z" fill="#53A1B3" stroke="#E96C4C" stroke-width="2.51" stroke-linecap="round" stroke-linejoin="round"/>
<path fill-rule="evenodd" clip-rule="evenodd" d="M271.313 247.99C271.313 273.063 250.349 293.388 224.488 293.388C198.628 293.388 177.664 273.063 177.664 247.99C177.664 222.917 198.628 202.592 224.488 202.592C250.349 202.592 271.313 222.917 271.313 247.99Z" fill="#004153" stroke="#E96C4C" stroke-width="1.5" stroke-linecap="round" stroke-linejoin="round"/>
<path fill-rule="evenodd" clip-rule="evenodd" d="M488.309 30.628H584.073L576.568 18.6647C571.647 10.8211 558.856 5 536.191 5C513.526 5 500.734 10.8211 495.814 18.6647L488.309 30.628Z" fill="#004153" stroke="#E96C4C" stroke-width="2"/>
<path fill-rule="evenodd" clip-rule="evenodd" d="M488.309 50.752H584.072L576.568 38.7887C571.647 30.945 558.856 25.1239 536.191 25.1239C513.526 25.1239 500.734 30.945 495.814 38.7887L488.309 50.752Z" fill="#004153" stroke="#E96C4C" stroke-width="2"/>
<path fill-rule="evenodd" clip-rule="evenodd" d="M424.283 157.175C424.283 215.813 473.312 263.348 533.793 263.348C594.274 263.348 643.303 215.813 643.303 157.175C643.303 98.5369 594.274 51.0015 533.793 51.0015C473.312 51.0015 424.283 98.5369 424.283 157.175Z" fill="#1B697B" stroke="#E96C4C" stroke-width="2.51" stroke-linecap="round" stroke-linejoin="round"/>
<path fill-rule="evenodd" clip-rule="evenodd" d="M511.314 78.7092C506.878 78.7092 503.28 82.1973 503.28 86.4989V127.548H460.851C456.414 127.548 452.907 131.036 452.907 135.337V179.012C452.907 183.314 456.414 186.802 460.851 186.802H503.28V227.851C503.28 232.152 506.878 235.64 511.314 235.64H556.362C560.798 235.64 564.306 232.152 564.306 227.851V186.802H606.735C611.172 186.802 614.679 183.314 614.679 179.012V135.337C614.679 131.036 611.172 127.548 606.735 127.548H564.306V86.4989C564.306 82.1973 560.798 78.7092 556.362 78.7092H511.314Z" fill="#004153" stroke="#E96C4C" stroke-width="2.32258"/>
<path d="M300.798 150H267.202C263.777 150 261 152.739 261 156.118V169.882C261 173.261 263.777 176 267.202 176H300.798C304.223 176 307 173.261 307 169.882V156.118C307 152.739 304.223 150 300.798 150Z" fill="#004153" stroke="#E96C4C" stroke-width="2" stroke-linecap="round" stroke-linejoin="round"/>
<path d="M383.798 150H350.202C346.777 150 344 152.739 344 156.118V169.882C344 173.261 346.777 176 350.202 176H383.798C387.223 176 390 173.261 390 169.882V156.118C390 152.739 387.223 150 383.798 150Z" fill="#004153" stroke="#E96C4C" stroke-width="2" stroke-linecap="round" stroke-linejoin="round"/>
<path fill-rule="evenodd" clip-rule="evenodd" d="M347.282 116.034C347.282 128.307 337.019 138.257 324.36 138.257C311.701 138.257 301.438 128.307 301.438 116.034C301.438 103.76 311.701 93.8105 324.36 93.8105C337.019 93.8105 347.282 103.76 347.282 116.034Z" fill="#004153" stroke="#E96C4C" stroke-width="2" stroke-linecap="round" stroke-linejoin="round"/>
<path fill-rule="evenodd" clip-rule="evenodd" d="M557.583 107.749C557.583 120.488 546.932 130.814 533.793 130.814C520.654 130.814 510.003 120.488 510.003 107.749C510.003 95.0106 520.654 84.684 533.793 84.684C546.932 84.684 557.583 95.0106 557.583 107.749Z" fill="#53A1B3" stroke="#E96C4C" stroke-width="2" stroke-linecap="round" stroke-linejoin="round"/>
<path fill-rule="evenodd" clip-rule="evenodd" d="M557.583 206.966C557.583 219.705 546.932 230.032 533.793 230.032C520.654 230.032 510.003 219.705 510.003 206.966C510.003 194.228 520.654 183.901 533.793 183.901C546.932 183.901 557.583 194.228 557.583 206.966Z" fill="#53A1B3" stroke="#E96C4C" stroke-width="2" stroke-linecap="round" stroke-linejoin="round"/>
<path fill-rule="evenodd" clip-rule="evenodd" d="M561.17 157.358C561.17 144.619 571.822 134.292 584.961 134.292C598.099 134.292 608.751 144.619 608.751 157.358C608.751 170.096 598.099 180.423 584.961 180.423C571.822 180.423 561.17 170.096 561.17 157.358Z" fill="#53A1B3" stroke="#E96C4C" stroke-width="2" stroke-linecap="round" stroke-linejoin="round"/>
<path fill-rule="evenodd" clip-rule="evenodd" d="M458.835 157.358C458.835 144.619 469.486 134.292 482.625 134.292C495.764 134.292 506.416 144.619 506.416 157.358C506.416 170.096 495.764 180.423 482.625 180.423C469.486 180.423 458.835 170.096 458.835 157.358Z" fill="#53A1B3" stroke="#E96C4C" stroke-width="2" stroke-linecap="round" stroke-linejoin="round"/>
<path fill-rule="evenodd" clip-rule="evenodd" d="M96.5146 77.3586C92.0778 77.3586 88.4801 80.8467 88.4801 85.1483V126.197H46.0509C41.6142 126.197 38.1067 129.685 38.1067 133.987V177.662C38.1067 181.963 41.6142 185.451 46.0509 185.451H88.4801V226.5C88.4801 230.802 92.0778 234.29 96.5146 234.29H141.562C145.998 234.29 149.506 230.802 149.506 226.5V185.451H191.935C196.372 185.451 199.879 181.963 199.879 177.662V133.987C199.879 129.685 196.372 126.197 191.935 126.197H149.506V85.1483C149.506 80.8468 145.998 77.3586 141.562 77.3586H96.5146Z" fill="#004153" stroke="#E96C4C" stroke-width="2.32258"/>
<path fill-rule="evenodd" clip-rule="evenodd" d="M496.375 247.99C496.375 285.195 465.267 315.355 426.893 315.355C388.519 315.355 357.411 285.195 357.411 247.99C357.411 210.785 388.519 180.625 426.893 180.625C465.267 180.625 496.375 210.785 496.375 247.99Z" fill="#53A1B3" stroke="#E96C4C" stroke-width="2.51" stroke-linecap="round" stroke-linejoin="round"/>
<path fill-rule="evenodd" clip-rule="evenodd" d="M473.718 247.99C473.718 273.063 452.754 293.388 426.893 293.388C401.032 293.388 380.068 273.063 380.068 247.99C380.068 222.917 401.032 202.592 426.893 202.592C452.754 202.592 473.718 222.917 473.718 247.99Z" fill="#004153" stroke="#E96C4C" stroke-width="1.5" stroke-linecap="round" stroke-linejoin="round"/>
<path fill-rule="evenodd" clip-rule="evenodd" d="M118.993 85.6232L108.063 95.6881H129.923L118.993 85.6232Z" fill="#53A1B3" stroke="#E96C4C" stroke-width="1.1"/>
<path fill-rule="evenodd" clip-rule="evenodd" d="M118.993 226.025L108.063 215.96H129.923L118.993 226.025Z" fill="#53A1B3" stroke="#E96C4C" stroke-width="1.1"/>
<path fill-rule="evenodd" clip-rule="evenodd" d="M191.4 155.824L181.019 145.227V166.421L191.4 155.824Z" fill="#53A1B3" stroke="#E96C4C" stroke-width="1.1"/>
<path fill-rule="evenodd" clip-rule="evenodd" d="M46.586 155.824L56.9672 145.227V166.421L46.586 155.824Z" fill="#53A1B3" stroke="#E96C4C" stroke-width="1.1"/>
<path d="M538.563 208.719C538.563 210.587 538.176 212.016 537.403 213.006C536.63 213.995 535.498 214.49 534.007 214.49C532.535 214.49 531.41 214.004 530.63 213.033C529.851 212.062 529.452 210.671 529.434 208.859V206.372C529.434 204.486 529.823 203.054 530.603 202.077C531.388 201.1 532.517 200.611 533.989 200.611C535.461 200.611 536.586 201.097 537.366 202.068C538.145 203.032 538.544 204.421 538.563 206.233V208.719ZM535.881 205.992C535.881 204.872 535.727 204.059 535.418 203.552C535.114 203.039 534.638 202.782 533.989 202.782C533.358 202.782 532.891 203.026 532.588 203.515C532.291 203.997 532.133 204.755 532.115 205.788V209.072C532.115 210.173 532.263 210.992 532.56 211.53C532.863 212.062 533.346 212.328 534.007 212.328C534.663 212.328 535.136 212.072 535.427 211.558C535.717 211.045 535.869 210.259 535.881 209.202V205.992Z" fill="#E96C4C"/>
<path d="M587.618 164.75H584.936V154.415L581.736 155.408V153.228L587.33 151.224H587.618V164.75Z" fill="#E96C4C"/>
<path d="M486.369 164.75H477.11V162.913L481.48 158.256C482.08 157.601 482.522 157.028 482.806 156.54C483.097 156.051 483.242 155.587 483.242 155.148C483.242 154.548 483.091 154.078 482.788 153.738C482.485 153.392 482.052 153.219 481.489 153.219C480.883 153.219 480.404 153.429 480.051 153.849C479.705 154.264 479.532 154.811 479.532 155.492H476.841C476.841 154.669 477.036 153.917 477.426 153.237C477.821 152.557 478.378 152.025 479.096 151.641C479.813 151.252 480.626 151.057 481.535 151.057C482.927 151.057 484.006 151.391 484.773 152.059C485.546 152.727 485.933 153.67 485.933 154.889C485.933 155.556 485.76 156.237 485.413 156.93C485.067 157.622 484.473 158.429 483.632 159.351L480.561 162.589H486.369V164.75Z" fill="#E96C4C"/>
<path d="M532.649 107.51H534.077C534.758 107.51 535.262 107.34 535.59 107C535.917 106.66 536.081 106.208 536.081 105.645C536.081 105.101 535.917 104.677 535.59 104.374C535.268 104.071 534.823 103.92 534.254 103.92C533.74 103.92 533.31 104.062 532.964 104.347C532.618 104.625 532.445 104.99 532.445 105.441H529.763C529.763 104.736 529.952 104.105 530.329 103.549C530.713 102.986 531.245 102.547 531.925 102.231C532.612 101.916 533.366 101.758 534.189 101.758C535.617 101.758 536.737 102.101 537.547 102.788C538.357 103.468 538.762 104.408 538.762 105.608C538.762 106.227 538.574 106.796 538.197 107.315C537.819 107.835 537.324 108.234 536.712 108.512C537.473 108.784 538.039 109.192 538.41 109.737C538.787 110.281 538.976 110.924 538.976 111.666C538.976 112.866 538.537 113.828 537.658 114.552C536.786 115.275 535.63 115.637 534.189 115.637C532.84 115.637 531.736 115.281 530.877 114.57C530.023 113.859 529.596 112.919 529.596 111.75H532.278C532.278 112.257 532.466 112.671 532.843 112.993C533.227 113.315 533.697 113.475 534.254 113.475C534.891 113.475 535.389 113.308 535.747 112.974C536.112 112.634 536.295 112.186 536.295 111.629C536.295 110.281 535.552 109.607 534.068 109.607H532.649V107.51Z" fill="#E96C4C"/>
<path d="M121.132 41.3573H122.34V43.0638H121.132V45.371H119.015V43.0638H114.643L114.547 41.7308L118.993 34.7069H121.132V41.3573ZM116.657 41.3573H119.015V37.5927L118.876 37.8344L116.657 41.3573Z" fill="#E96C4C"/>
<path d="M532.198 40.1268L532.813 34.7069H538.79V36.472H534.549L534.286 38.7645C534.789 38.496 535.323 38.3617 535.89 38.3617C536.905 38.3617 537.701 38.6766 538.277 39.3065C538.854 39.9364 539.142 40.8177 539.142 41.9506C539.142 42.639 538.995 43.2567 538.702 43.8036C538.414 44.3456 537.999 44.7679 537.457 45.0707C536.915 45.3685 536.275 45.5175 535.538 45.5175C534.894 45.5175 534.295 45.3881 533.744 45.1293C533.192 44.8656 532.755 44.4969 532.433 44.0233C532.115 43.5497 531.947 43.0101 531.927 42.4047H534.022C534.066 42.849 534.22 43.1957 534.483 43.4447C534.752 43.6888 535.101 43.8109 535.531 43.8109C536.009 43.8109 536.378 43.64 536.637 43.2982C536.896 42.9515 537.025 42.4633 537.025 41.8334C537.025 41.2279 536.876 40.764 536.578 40.4418C536.28 40.1195 535.858 39.9584 535.311 39.9584C534.808 39.9584 534.4 40.0902 534.088 40.3539L533.883 40.5443L532.198 40.1268Z" fill="#E96C4C"/>
<path d="M120.324 10.4881V11.9988H120.146C119.317 12.0115 118.648 12.2273 118.14 12.6463C117.637 13.0652 117.334 13.6471 117.233 14.3919C117.723 13.8925 118.343 13.6429 119.092 13.6429C119.896 13.6429 120.535 13.9306 121.009 14.5061C121.483 15.0817 121.72 15.8391 121.72 16.7786C121.72 17.3795 121.589 17.9233 121.327 18.4099C121.069 18.8966 120.7 19.2753 120.222 19.5462C119.748 19.817 119.211 19.9524 118.61 19.9524C117.637 19.9524 116.85 19.6139 116.249 18.9368C115.652 18.2597 115.354 17.3562 115.354 16.2263V15.5662C115.354 14.5633 115.542 13.6788 115.919 12.9129C116.299 12.1427 116.843 11.5481 117.55 11.1292C118.261 10.706 119.084 10.4923 120.019 10.4881H120.324ZM118.534 15.1155C118.238 15.1155 117.969 15.1938 117.728 15.3504C117.486 15.5027 117.309 15.7058 117.194 15.9597V16.5183C117.194 17.1319 117.315 17.6123 117.556 17.9593C117.797 18.302 118.136 18.4734 118.572 18.4734C118.965 18.4734 119.283 18.319 119.524 18.01C119.769 17.6969 119.892 17.2928 119.892 16.7976C119.892 16.2941 119.769 15.8878 119.524 15.5789C119.279 15.27 118.948 15.1155 118.534 15.1155Z" fill="#E96C4C"/>
<path d="M539.31 11.8271L535.736 20.041H533.8L537.38 12.2841H532.785V10.7988H539.31V11.8271Z" fill="#E96C4C"/>
<path d="M287.043 159.604C287.043 160.226 286.888 160.776 286.577 161.257C286.267 161.737 285.839 162.121 285.294 162.408C285.915 162.707 286.407 163.12 286.771 163.647C287.134 164.169 287.315 164.784 287.315 165.493C287.315 166.63 286.929 167.529 286.155 168.191C285.382 168.848 284.33 169.176 283 169.176C281.67 169.176 280.615 168.845 279.836 168.183C279.057 167.521 278.667 166.624 278.667 165.493C278.667 164.784 278.849 164.166 279.212 163.639C279.575 163.111 280.064 162.701 280.68 162.408C280.135 162.121 279.707 161.737 279.396 161.257C279.092 160.776 278.939 160.226 278.939 159.604C278.939 158.515 279.303 157.647 280.029 157.003C280.756 156.353 281.743 156.027 282.991 156.027C284.233 156.027 285.218 156.35 285.944 156.994C286.677 157.633 287.043 158.503 287.043 159.604ZM284.767 165.309C284.767 164.752 284.605 164.307 284.283 163.973C283.961 163.639 283.527 163.472 282.982 163.472C282.443 163.472 282.013 163.639 281.69 163.973C281.368 164.301 281.207 164.746 281.207 165.309C281.207 165.854 281.365 166.293 281.682 166.627C281.998 166.961 282.438 167.128 283 167.128C283.551 167.128 283.981 166.967 284.292 166.645C284.608 166.322 284.767 165.877 284.767 165.309ZM284.503 159.728C284.503 159.229 284.371 158.831 284.107 158.532C283.844 158.228 283.472 158.075 282.991 158.075C282.517 158.075 282.147 158.222 281.884 158.515C281.62 158.808 281.488 159.212 281.488 159.728C281.488 160.237 281.62 160.647 281.884 160.958C282.147 161.269 282.52 161.424 283 161.424C283.48 161.424 283.85 161.269 284.107 160.958C284.371 160.647 284.503 160.237 284.503 159.728Z" fill="#E96C4C"/>
<path d="M368.644 163.885C367.981 164.535 367.208 164.86 366.323 164.86C365.192 164.86 364.287 164.474 363.607 163.7C362.928 162.921 362.588 161.872 362.588 160.554C362.588 159.716 362.77 158.948 363.133 158.251C363.502 157.548 364.015 157.003 364.671 156.616C365.327 156.224 366.065 156.027 366.886 156.027C367.729 156.027 368.479 156.238 369.136 156.66C369.792 157.082 370.302 157.688 370.665 158.479C371.028 159.271 371.213 160.176 371.219 161.195V162.136C371.219 164.269 370.688 165.944 369.628 167.163C368.567 168.382 367.064 169.032 365.119 169.114L364.495 169.123V167.005L365.058 166.996C367.267 166.896 368.462 165.859 368.644 163.885ZM366.947 162.918C367.357 162.918 367.709 162.812 368.002 162.602C368.301 162.391 368.526 162.136 368.679 161.837V160.791C368.679 159.93 368.515 159.262 368.187 158.787C367.858 158.312 367.419 158.075 366.868 158.075C366.358 158.075 365.939 158.31 365.611 158.778C365.283 159.241 365.119 159.824 365.119 160.527C365.119 161.225 365.277 161.799 365.594 162.25C365.916 162.695 366.367 162.918 366.947 162.918Z" fill="#E96C4C"/>
<path d="M424.981 244.06H422.567V237.45C422.567 237.315 422.567 237.153 422.567 236.966C422.573 236.773 422.578 236.575 422.583 236.372C422.593 236.164 422.601 235.955 422.606 235.747C422.617 235.539 422.625 235.349 422.63 235.177C422.604 235.208 422.56 235.255 422.497 235.317C422.435 235.38 422.364 235.45 422.286 235.528C422.208 235.601 422.127 235.677 422.044 235.755C421.961 235.833 421.88 235.903 421.802 235.966L420.489 237.021L419.317 235.567L422.997 232.638H424.981V244.06ZM433.794 244.06H431.38V237.45C431.38 237.315 431.38 237.153 431.38 236.966C431.385 236.773 431.39 236.575 431.395 236.372C431.406 236.164 431.414 235.955 431.419 235.747C431.429 235.539 431.437 235.349 431.442 235.177C431.416 235.208 431.372 235.255 431.31 235.317C431.247 235.38 431.177 235.45 431.099 235.528C431.02 235.601 430.94 235.677 430.856 235.755C430.773 235.833 430.692 235.903 430.614 235.966L429.302 237.021L428.13 235.567L431.81 232.638H433.794V244.06ZM399.432 255.931V260.06H398.16V250.065H400.594C401.806 250.065 402.701 250.3 403.28 250.77C403.859 251.239 404.148 251.95 404.148 252.902C404.148 253.299 404.091 253.645 403.978 253.941C403.868 254.238 403.72 254.493 403.533 254.707C403.351 254.917 403.141 255.092 402.904 255.233C402.667 255.375 402.423 255.491 402.173 255.582L404.894 260.06H403.396L400.997 255.931H399.432ZM399.432 254.851H400.553C400.963 254.851 401.312 254.812 401.599 254.734C401.886 254.652 402.12 254.534 402.303 254.379C402.49 254.219 402.624 254.023 402.706 253.791C402.793 253.554 402.836 253.278 402.836 252.964C402.836 252.636 402.788 252.358 402.692 252.13C402.601 251.902 402.46 251.715 402.269 251.569C402.082 251.424 401.842 251.319 401.551 251.255C401.264 251.187 400.922 251.152 400.525 251.152H399.432V254.851ZM407.491 260.06H406.247V252.554H407.491V260.06ZM406.151 250.523C406.151 250.25 406.22 250.052 406.356 249.929C406.498 249.806 406.671 249.744 406.876 249.744C406.976 249.744 407.07 249.76 407.156 249.792C407.247 249.819 407.325 249.865 407.389 249.929C407.457 249.993 407.509 250.075 407.546 250.175C407.587 250.271 407.607 250.387 407.607 250.523C407.607 250.788 407.534 250.986 407.389 251.118C407.247 251.246 407.076 251.31 406.876 251.31C406.671 251.31 406.498 251.246 406.356 251.118C406.22 250.991 406.151 250.792 406.151 250.523ZM415.653 252.554V253.326L414.307 253.511C414.434 253.67 414.541 253.875 414.628 254.126C414.715 254.372 414.758 254.652 414.758 254.967C414.758 255.313 414.703 255.634 414.594 255.931C414.489 256.222 414.327 256.475 414.108 256.689C413.894 256.904 413.628 257.072 413.309 257.195C412.99 257.314 412.618 257.373 412.194 257.373C412.094 257.373 411.994 257.373 411.894 257.373C411.793 257.369 411.711 257.359 411.647 257.346C411.57 257.391 411.492 257.444 411.415 257.503C411.342 257.558 411.274 257.621 411.21 257.694C411.151 257.767 411.101 257.849 411.06 257.94C411.023 258.032 411.005 258.132 411.005 258.241C411.005 258.364 411.032 258.465 411.087 258.542C411.142 258.615 411.215 258.672 411.306 258.713C411.401 258.754 411.513 258.781 411.641 258.795C411.768 258.809 411.903 258.815 412.044 258.815H413.247C413.671 258.815 414.029 258.87 414.32 258.98C414.612 259.084 414.849 259.228 415.031 259.41C415.218 259.592 415.353 259.809 415.435 260.06C415.517 260.306 415.558 260.568 415.558 260.846C415.558 261.247 415.482 261.607 415.332 261.926C415.186 262.245 414.961 262.514 414.655 262.732C414.35 262.956 413.963 263.127 413.493 263.245C413.028 263.364 412.479 263.423 411.846 263.423C411.358 263.423 410.932 263.375 410.567 263.279C410.203 263.184 409.9 263.045 409.658 262.862C409.417 262.68 409.234 262.459 409.111 262.199C408.993 261.944 408.934 261.655 408.934 261.331C408.934 261.058 408.977 260.816 409.063 260.606C409.155 260.401 409.275 260.224 409.426 260.073C409.576 259.923 409.749 259.8 409.945 259.704C410.146 259.608 410.353 259.536 410.567 259.485C410.376 259.399 410.219 259.262 410.096 259.075C409.973 258.888 409.911 258.674 409.911 258.433C409.911 258.155 409.984 257.915 410.13 257.715C410.276 257.51 410.506 257.312 410.82 257.12C410.624 257.038 410.444 256.926 410.28 256.785C410.121 256.639 409.984 256.475 409.87 256.293C409.761 256.106 409.674 255.903 409.61 255.685C409.551 255.466 409.521 255.24 409.521 255.008C409.521 254.602 409.578 254.24 409.692 253.921C409.806 253.602 409.975 253.331 410.198 253.107C410.422 252.884 410.7 252.713 411.032 252.595C411.365 252.476 411.752 252.417 412.194 252.417C412.363 252.417 412.536 252.431 412.714 252.458C412.896 252.481 413.049 252.513 413.172 252.554H415.653ZM410.109 261.29C410.109 261.459 410.139 261.616 410.198 261.762C410.257 261.908 410.353 262.033 410.485 262.138C410.622 262.243 410.8 262.325 411.019 262.384C411.242 262.448 411.518 262.48 411.846 262.48C412.693 262.48 413.327 262.347 413.746 262.083C414.17 261.823 414.382 261.447 414.382 260.955C414.382 260.745 414.354 260.575 414.3 260.442C414.245 260.31 414.154 260.205 414.026 260.128C413.903 260.055 413.739 260.005 413.534 259.978C413.329 259.95 413.078 259.937 412.782 259.937H411.579C411.42 259.937 411.253 259.955 411.08 259.991C410.907 260.028 410.747 260.096 410.602 260.196C410.46 260.297 410.342 260.433 410.246 260.606C410.155 260.784 410.109 261.012 410.109 261.29ZM410.738 254.967C410.738 255.491 410.861 255.881 411.107 256.136C411.354 256.391 411.702 256.519 412.153 256.519C412.609 256.519 412.953 256.393 413.186 256.143C413.423 255.887 413.541 255.489 413.541 254.946C413.541 254.386 413.42 253.973 413.179 253.709C412.942 253.445 412.595 253.313 412.14 253.313C411.688 253.313 411.342 253.449 411.101 253.723C410.859 253.996 410.738 254.411 410.738 254.967ZM421.819 260.06V255.227C421.819 254.634 421.699 254.19 421.457 253.894C421.22 253.597 420.846 253.449 420.336 253.449C419.967 253.449 419.657 253.508 419.406 253.627C419.156 253.745 418.953 253.921 418.798 254.153C418.647 254.386 418.538 254.671 418.47 255.008C418.406 255.345 418.374 255.732 418.374 256.17V260.06H417.13V249.423H418.374V252.581L418.319 253.565H418.388C418.502 253.369 418.636 253.201 418.791 253.06C418.951 252.914 419.124 252.793 419.311 252.697C419.497 252.602 419.696 252.531 419.905 252.485C420.115 252.44 420.329 252.417 420.548 252.417C421.382 252.417 422.008 252.636 422.428 253.073C422.852 253.506 423.063 254.201 423.063 255.158V260.06H421.819ZM427.644 259.178C427.726 259.178 427.817 259.173 427.917 259.164C428.022 259.155 428.122 259.144 428.218 259.13C428.313 259.116 428.4 259.1 428.478 259.082C428.56 259.064 428.621 259.048 428.662 259.034V259.978C428.603 260.005 428.528 260.032 428.437 260.06C428.345 260.087 428.245 260.11 428.136 260.128C428.026 260.151 427.912 260.167 427.794 260.176C427.675 260.189 427.559 260.196 427.445 260.196C427.163 260.196 426.901 260.16 426.659 260.087C426.418 260.014 426.208 259.889 426.03 259.711C425.857 259.533 425.72 259.294 425.62 258.993C425.52 258.688 425.47 258.305 425.47 257.845V253.49H424.41V252.937L425.47 252.403L426.003 250.831H426.721V252.554H428.607V253.49H426.721V257.845C426.721 258.287 426.791 258.619 426.933 258.843C427.078 259.066 427.315 259.178 427.644 259.178ZM439.777 260.06L438.684 256.963H434.958L433.851 260.06H432.565L436.236 250.024H437.398L441.076 260.06H439.777ZM438.28 255.835L437.269 252.937C437.241 252.855 437.207 252.754 437.166 252.636C437.13 252.517 437.091 252.39 437.05 252.253C437.009 252.116 436.968 251.975 436.927 251.829C436.886 251.679 436.847 251.533 436.811 251.392C436.779 251.533 436.742 251.679 436.701 251.829C436.66 251.98 436.619 252.125 436.578 252.267C436.537 252.403 436.496 252.531 436.455 252.649C436.419 252.763 436.387 252.859 436.359 252.937L435.368 255.835H438.28ZM443.872 256.211L441.459 252.554H442.874L444.583 255.356L446.292 252.554H447.707L445.28 256.211L447.83 260.06H446.415L444.583 257.079L442.737 260.06H441.322L443.872 256.211ZM450.517 260.06H449.272V252.554H450.517V260.06ZM449.177 250.523C449.177 250.25 449.245 250.052 449.382 249.929C449.523 249.806 449.696 249.744 449.901 249.744C450.002 249.744 450.095 249.76 450.182 249.792C450.273 249.819 450.35 249.865 450.414 249.929C450.482 249.993 450.535 250.075 450.571 250.175C450.612 250.271 450.633 250.387 450.633 250.523C450.633 250.788 450.56 250.986 450.414 251.118C450.273 251.246 450.102 251.31 449.901 251.31C449.696 251.31 449.523 251.246 449.382 251.118C449.245 250.991 449.177 250.792 449.177 250.523ZM457.387 258.002C457.387 258.367 457.321 258.686 457.188 258.959C457.056 259.232 456.865 259.463 456.614 259.649C456.368 259.832 456.07 259.968 455.719 260.06C455.368 260.151 454.974 260.196 454.536 260.196C454.039 260.196 453.613 260.155 453.258 260.073C452.902 259.996 452.59 259.88 452.321 259.725V258.59C452.463 258.663 452.62 258.736 452.793 258.809C452.966 258.877 453.148 258.939 453.34 258.993C453.531 259.048 453.727 259.093 453.928 259.13C454.133 259.162 454.336 259.178 454.536 259.178C454.832 259.178 455.083 259.153 455.288 259.103C455.498 259.052 455.666 258.982 455.794 258.891C455.926 258.795 456.022 258.681 456.081 258.549C456.14 258.412 456.17 258.262 456.17 258.098C456.17 257.956 456.147 257.829 456.102 257.715C456.056 257.601 455.972 257.489 455.849 257.38C455.73 257.266 455.566 257.152 455.356 257.038C455.147 256.924 454.878 256.797 454.55 256.655C454.222 256.514 453.925 256.375 453.661 256.238C453.401 256.102 453.18 255.949 452.998 255.78C452.816 255.612 452.674 255.418 452.574 255.199C452.479 254.976 452.431 254.712 452.431 254.406C452.431 254.087 452.492 253.805 452.615 253.559C452.743 253.308 452.921 253.098 453.148 252.93C453.376 252.761 453.65 252.633 453.969 252.547C454.288 252.46 454.643 252.417 455.035 252.417C455.477 252.417 455.881 252.465 456.245 252.561C456.614 252.656 456.963 252.782 457.291 252.937L456.86 253.941C456.564 253.809 456.259 253.695 455.944 253.6C455.634 253.499 455.318 253.449 454.994 253.449C454.529 253.449 454.185 253.527 453.962 253.682C453.739 253.832 453.627 254.049 453.627 254.331C453.627 254.491 453.652 254.63 453.702 254.748C453.757 254.867 453.848 254.978 453.976 255.083C454.103 255.188 454.274 255.295 454.488 255.404C454.702 255.509 454.969 255.628 455.288 255.76C455.616 255.897 455.908 256.033 456.163 256.17C456.423 256.307 456.644 256.462 456.826 256.635C457.008 256.803 457.147 256.997 457.243 257.216C457.339 257.435 457.387 257.697 457.387 258.002Z" fill="#E96C4C"/>
<path d="M114.521 117H111.84V106.665L108.639 107.658V105.478L114.233 103.474H114.521V117ZM128.177 117H118.918V115.163L123.288 110.506C123.888 109.85 124.33 109.278 124.615 108.79C124.905 108.301 125.051 107.837 125.051 107.398C125.051 106.798 124.899 106.328 124.596 105.988C124.293 105.641 123.86 105.468 123.297 105.468C122.691 105.468 122.212 105.679 121.859 106.099C121.513 106.514 121.34 107.061 121.34 107.741H118.649C118.649 106.919 118.844 106.167 119.234 105.487C119.63 104.806 120.186 104.275 120.904 103.891C121.621 103.501 122.435 103.307 123.344 103.307C124.735 103.307 125.815 103.641 126.582 104.309C127.355 104.977 127.741 105.92 127.741 107.138C127.741 107.806 127.568 108.486 127.222 109.179C126.875 109.872 126.282 110.679 125.44 111.601L122.37 114.838H128.177V117Z" fill="#E96C4C"/>
<path d="M114.021 209H111.34V198.665L108.139 199.658V197.478L113.733 195.474H114.021V209ZM121.146 201.059H122.575C123.255 201.059 123.759 200.889 124.087 200.548C124.415 200.208 124.579 199.757 124.579 199.194C124.579 198.65 124.415 198.226 124.087 197.923C123.765 197.62 123.32 197.468 122.751 197.468C122.238 197.468 121.808 197.611 121.461 197.895C121.115 198.173 120.942 198.538 120.942 198.99H118.261C118.261 198.285 118.449 197.654 118.827 197.097C119.21 196.534 119.742 196.095 120.422 195.78C121.109 195.464 121.863 195.307 122.686 195.307C124.115 195.307 125.234 195.65 126.044 196.336C126.855 197.017 127.26 197.957 127.26 199.157C127.26 199.775 127.071 200.344 126.694 200.864C126.317 201.383 125.822 201.782 125.209 202.061C125.97 202.333 126.536 202.741 126.907 203.285C127.285 203.829 127.473 204.473 127.473 205.215C127.473 206.415 127.034 207.376 126.156 208.1C125.284 208.824 124.127 209.186 122.686 209.186C121.338 209.186 120.234 208.83 119.374 208.119C118.521 207.407 118.094 206.467 118.094 205.298H120.775C120.775 205.806 120.964 206.22 121.341 206.542C121.724 206.863 122.194 207.024 122.751 207.024C123.388 207.024 123.886 206.857 124.245 206.523C124.61 206.183 124.792 205.734 124.792 205.178C124.792 203.829 124.05 203.155 122.565 203.155H121.146V201.059Z" fill="#E96C4C"/>
<path d="M71.021 163H68.3398V152.665L65.1392 153.658V151.478L70.7334 149.474H71.021V163ZM83.3506 157.916H84.8813V160.078H83.3506V163H80.6694V160.078H75.1309L75.0103 158.389L80.6416 149.492H83.3506V157.916ZM77.6821 157.916H80.6694V153.147L80.4932 153.454L77.6821 157.916Z" fill="#E96C4C"/>
<path d="M158.021 163H155.34V152.665L152.139 153.658V151.478L157.733 149.474H158.021V163ZM162.817 156.357L163.597 149.492H171.167V151.728H165.795L165.461 154.632C166.098 154.292 166.776 154.122 167.493 154.122C168.78 154.122 169.788 154.521 170.518 155.318C171.247 156.116 171.612 157.233 171.612 158.667C171.612 159.54 171.427 160.322 171.056 161.015C170.691 161.701 170.165 162.236 169.479 162.62C168.792 162.997 167.982 163.186 167.048 163.186C166.231 163.186 165.474 163.022 164.775 162.694C164.076 162.36 163.522 161.893 163.114 161.293C162.712 160.693 162.499 160.01 162.474 159.243H165.127C165.183 159.806 165.378 160.245 165.712 160.56C166.052 160.869 166.494 161.024 167.039 161.024C167.645 161.024 168.112 160.807 168.439 160.375C168.767 159.935 168.931 159.317 168.931 158.519C168.931 157.752 168.743 157.165 168.365 156.756C167.988 156.348 167.453 156.144 166.76 156.144C166.123 156.144 165.607 156.311 165.211 156.645L164.951 156.886L162.817 156.357Z" fill="#E96C4C"/>
<path d="M321.099 122.269H318.559V112.478L315.527 113.419V111.353L320.827 109.455H321.099V122.269ZM332.156 109.341V111.432H331.91C330.762 111.45 329.836 111.749 329.133 112.329C328.435 112.909 328.016 113.715 327.876 114.746C328.556 114.054 329.414 113.709 330.451 113.709C331.564 113.709 332.449 114.107 333.105 114.904C333.762 115.701 334.09 116.75 334.09 118.051C334.09 118.883 333.908 119.636 333.545 120.309C333.187 120.983 332.678 121.508 332.015 121.883C331.359 122.258 330.615 122.445 329.783 122.445C328.435 122.445 327.346 121.976 326.514 121.039C325.687 120.101 325.274 118.85 325.274 117.286V116.372C325.274 114.983 325.535 113.759 326.056 112.698C326.584 111.632 327.337 110.808 328.315 110.228C329.3 109.642 330.439 109.346 331.734 109.341H332.156ZM329.678 115.748C329.267 115.748 328.895 115.856 328.561 116.073C328.227 116.284 327.981 116.565 327.823 116.917V117.69C327.823 118.54 327.99 119.205 328.324 119.685C328.658 120.16 329.127 120.397 329.73 120.397C330.275 120.397 330.715 120.183 331.049 119.756C331.389 119.322 331.558 118.762 331.558 118.077C331.558 117.38 331.389 116.817 331.049 116.389C330.709 115.962 330.252 115.748 329.678 115.748Z" fill="#E96C4C"/>
<path d="M220.642 245.001H218.384V236.298L215.689 237.134V235.298L220.4 233.611H220.642V245.001ZM232.001 240.298C232.001 241.871 231.676 243.074 231.025 243.908C230.374 244.741 229.42 245.158 228.165 245.158C226.926 245.158 225.978 244.749 225.321 243.931C224.665 243.113 224.329 241.942 224.314 240.415V238.322C224.314 236.733 224.642 235.527 225.298 234.705C225.959 233.882 226.91 233.47 228.15 233.47C229.389 233.47 230.337 233.879 230.993 234.697C231.65 235.509 231.985 236.679 232.001 238.205V240.298ZM229.743 238.001C229.743 237.059 229.613 236.374 229.353 235.947C229.097 235.514 228.696 235.298 228.15 235.298C227.618 235.298 227.225 235.504 226.97 235.915C226.72 236.322 226.587 236.96 226.571 237.83V240.595C226.571 241.522 226.696 242.212 226.946 242.665C227.202 243.113 227.608 243.337 228.165 243.337C228.717 243.337 229.116 243.121 229.36 242.689C229.605 242.257 229.733 241.595 229.743 240.705V238.001ZM198.757 259.928H203.474V261.001H197.438V251.048H198.757V259.928ZM207.842 261.138C206.839 261.138 206.024 260.81 205.395 260.154C204.766 259.493 204.451 258.611 204.451 257.508V257.276C204.451 256.542 204.59 255.888 204.868 255.314C205.151 254.735 205.543 254.284 206.044 253.96C206.55 253.632 207.097 253.468 207.685 253.468C208.646 253.468 209.394 253.785 209.927 254.418C210.46 255.052 210.727 255.959 210.727 257.139V257.665H205.716C205.734 258.395 205.946 258.985 206.352 259.436C206.762 259.883 207.281 260.106 207.91 260.106C208.357 260.106 208.735 260.015 209.045 259.832C209.355 259.65 209.626 259.409 209.859 259.108L210.631 259.709C210.011 260.662 209.082 261.138 207.842 261.138ZM207.685 254.507C207.174 254.507 206.746 254.694 206.4 255.068C206.053 255.437 205.839 255.956 205.757 256.626H209.462V256.531C209.426 255.888 209.252 255.391 208.943 255.04C208.633 254.685 208.213 254.507 207.685 254.507ZM212.819 261.001V254.582H211.65V253.605H212.819V252.846C212.819 252.053 213.03 251.44 213.454 251.007C213.878 250.574 214.477 250.358 215.252 250.358C215.544 250.358 215.833 250.397 216.12 250.474L216.052 251.499C215.838 251.458 215.61 251.438 215.368 251.438C214.958 251.438 214.641 251.559 214.418 251.8C214.195 252.037 214.083 252.379 214.083 252.826V253.605H215.662V254.582H214.083V261.001H212.819ZM218.779 251.814V253.605H220.16V254.582H218.779V259.169C218.779 259.466 218.841 259.689 218.964 259.839C219.087 259.985 219.297 260.058 219.593 260.058C219.739 260.058 219.939 260.031 220.194 259.976V261.001C219.862 261.093 219.538 261.138 219.224 261.138C218.659 261.138 218.233 260.967 217.945 260.625C217.658 260.284 217.515 259.798 217.515 259.169V254.582H216.168V253.605H217.515V251.814H218.779ZM230.811 258.404H226.641L225.704 261.001H224.351L228.152 251.048H229.3L233.108 261.001H231.761L230.811 258.404ZM227.037 257.324H230.421L228.726 252.668L227.037 257.324ZM236.731 256.305L238.371 253.605H239.848L237.428 257.262L239.923 261.001H238.46L236.751 258.233L235.042 261.001H233.572L236.068 257.262L233.648 253.605H235.11L236.731 256.305ZM242.569 261.001H241.304V253.605H242.569V261.001ZM241.201 251.643C241.201 251.438 241.263 251.265 241.386 251.123C241.513 250.982 241.7 250.912 241.946 250.912C242.193 250.912 242.379 250.982 242.507 251.123C242.635 251.265 242.698 251.438 242.698 251.643C242.698 251.848 242.635 252.019 242.507 252.156C242.379 252.292 242.193 252.361 241.946 252.361C241.7 252.361 241.513 252.292 241.386 252.156C241.263 252.019 241.201 251.848 241.201 251.643ZM248.905 259.04C248.905 258.698 248.776 258.433 248.516 258.247C248.261 258.055 247.812 257.891 247.169 257.754C246.531 257.618 246.023 257.454 245.645 257.262C245.271 257.071 244.993 256.843 244.811 256.579C244.633 256.314 244.544 256 244.544 255.635C244.544 255.029 244.799 254.516 245.31 254.097C245.825 253.678 246.481 253.468 247.278 253.468C248.117 253.468 248.796 253.685 249.316 254.118C249.84 254.551 250.102 255.104 250.102 255.779H248.83C248.83 255.432 248.682 255.134 248.386 254.883C248.094 254.633 247.725 254.507 247.278 254.507C246.818 254.507 246.458 254.608 246.198 254.808C245.939 255.009 245.809 255.271 245.809 255.594C245.809 255.9 245.93 256.13 246.171 256.285C246.413 256.44 246.848 256.588 247.477 256.729C248.11 256.87 248.623 257.039 249.015 257.235C249.407 257.431 249.696 257.668 249.883 257.946C250.074 258.219 250.17 258.554 250.17 258.951C250.17 259.611 249.906 260.142 249.377 260.543C248.848 260.94 248.163 261.138 247.319 261.138C246.727 261.138 246.203 261.033 245.747 260.824C245.291 260.614 244.934 260.322 244.674 259.949C244.419 259.57 244.291 259.163 244.291 258.725H245.556C245.579 259.149 245.747 259.486 246.062 259.737C246.381 259.983 246.8 260.106 247.319 260.106C247.798 260.106 248.181 260.01 248.468 259.819C248.76 259.623 248.905 259.363 248.905 259.04Z" fill="#E96C4C"/>
</g>
<defs>
<filter id="filter0_d" x="0.30484" y="0.493317" width="652.693" height="326.475" filterUnits="userSpaceOnUse" color-interpolation-filters="sRGB">
<feFlood flood-opacity="0" result="BackgroundImageFix"/>
<feColorMatrix in="SourceAlpha" type="matrix" values="0 0 0 0 0 0 0 0 0 0 0 0 0 0 0 0 0 0 127 0"/>
<feOffset dy="4"/>
<feGaussianBlur stdDeviation="2"/>
<feColorMatrix type="matrix" values="0 0 0 0 0 0 0 0 0 0 0 0 0 0 0 0 0 0 0.25 0"/>
<feBlend mode="normal" in2="BackgroundImageFix" result="effect1_dropShadow"/>
<feBlend mode="normal" in="SourceGraphic" in2="effect1_dropShadow" result="shape"/>
</filter>
</defs>
</svg>
