<svg xmlns="http://www.w3.org/2000/svg" xmlns:xlink="http://www.w3.org/1999/xlink" width="1920" height="1080" viewBox="0 0 1920 1080">
  <defs>
    <style>
      .cls-1 {
        clip-path: url(#clip-Web_1920_1);
      }

      .cls-2 {
        fill: #4b4646;
      }

      .cls-14, .cls-2, .cls-3 {
        stroke: #707070;
      }

      .cls-10, .cls-11, .cls-14, .cls-2, .cls-3, .cls-4, .cls-5, .cls-6, .cls-7, .cls-9 {
        stroke-width: 4px;
      }

      .cls-3 {
        fill: #4b4b4b;
      }

      .cls-4, .cls-6 {
        fill: #666;
      }

      .cls-10, .cls-4, .cls-7 {
        stroke: #fff;
      }

      .cls-11, .cls-12, .cls-26, .cls-5, .cls-7, .cls-9 {
        fill: #707070;
      }

      .cls-5 {
        stroke: #f7f4f4;
      }

      .cls-6 {
        stroke: #eee;
      }

      .cls-10, .cls-13, .cls-14, .cls-8 {
        fill: #c9c9c9;
      }

      .cls-9 {
        stroke: #fbf9f9;
      }

      .cls-11 {
        stroke: #f9f5f5;
      }

      .cls-13 {
        stroke: #fafafa;
        stroke-width: 2px;
      }

      .cls-15, .cls-17, .cls-18, .cls-21, .cls-22, .cls-25 {
        fill: #fff;
      }

      .cls-15 {
        font-size: 41px;
      }

      .cls-15, .cls-16, .cls-17, .cls-18, .cls-19, .cls-20, .cls-21, .cls-22 {
        font-family: SegoeUI, Segoe UI;
      }

      .cls-16, .cls-19, .cls-20 {
        fill: #030303;
      }

      .cls-16, .cls-17, .cls-18 {
        font-size: 43px;
      }

      .cls-17 {
        opacity: 0.99;
      }

      .cls-19, .cls-20, .cls-21 {
        font-size: 44px;
      }

      .cls-20 {
        opacity: 0.7;
      }

      .cls-22 {
        font-size: 42px;
      }

      .cls-23, .cls-25, .cls-26, .cls-27 {
        stroke: none;
      }

      .cls-24 {
        fill: none;
      }

      .cls-27 {
        fill: #fafafa;
      }

      .cls-28 {
        filter: url(#Ellipse_4);
      }

      .cls-29 {
        filter: url(#Ellipse_2);
      }

      .cls-30 {
        filter: url(#Ellipse_3-2);
      }

      .cls-31 {
        filter: url(#Rectangle_4-2);
      }

      .cls-32 {
        filter: url(#Rectangle_5-2);
      }

      .cls-33 {
        filter: url(#Ellipse_3);
      }

      .cls-34 {
        filter: url(#Rectangle_4);
      }

      .cls-35 {
        filter: url(#Rectangle_5);
      }
    </style>
    <filter id="Rectangle_5" x="1428" y="56" width="289" height="209" filterUnits="userSpaceOnUse">
      <feOffset dx="6" dy="4" input="SourceAlpha"/>
      <feGaussianBlur stdDeviation="2" result="blur"/>
      <feFlood flood-color="#aaa" flood-opacity="0.612"/>
      <feComposite operator="in" in2="blur"/>
      <feComposite in="SourceGraphic"/>
    </filter>
    <filter id="Rectangle_4" x="1418" y="119" width="307" height="208" filterUnits="userSpaceOnUse">
      <feOffset dx="6" dy="4" input="SourceAlpha"/>
      <feGaussianBlur stdDeviation="2" result="blur-2"/>
      <feFlood flood-color="#aaa" flood-opacity="0.612"/>
      <feComposite operator="in" in2="blur-2"/>
      <feComposite in="SourceGraphic"/>
    </filter>
    <filter id="Ellipse_3" x="1268" y="182" width="606" height="621" filterUnits="userSpaceOnUse">
      <feOffset dx="6" dy="4" input="SourceAlpha"/>
      <feGaussianBlur stdDeviation="2" result="blur-3"/>
      <feFlood flood-color="#aaa" flood-opacity="0.612"/>
      <feComposite operator="in" in2="blur-3"/>
      <feComposite in="SourceGraphic"/>
    </filter>
    <filter id="Rectangle_5-2" x="219" y="56" width="288" height="209" filterUnits="userSpaceOnUse">
      <feOffset dx="6" dy="4" input="SourceAlpha"/>
      <feGaussianBlur stdDeviation="2" result="blur-4"/>
      <feFlood flood-color="#aaa" flood-opacity="0.612"/>
      <feComposite operator="in" in2="blur-4"/>
      <feComposite in="SourceGraphic"/>
    </filter>
    <filter id="Rectangle_4-2" x="210" y="119" width="307" height="208" filterUnits="userSpaceOnUse">
      <feOffset dx="6" dy="4" input="SourceAlpha"/>
      <feGaussianBlur stdDeviation="2" result="blur-5"/>
      <feFlood flood-color="#aaa" flood-opacity="0.612"/>
      <feComposite operator="in" in2="blur-5"/>
      <feComposite in="SourceGraphic"/>
    </filter>
    <filter id="Ellipse_3-2" x="59" y="178" width="606" height="620" filterUnits="userSpaceOnUse">
      <feOffset dx="6" dy="4" input="SourceAlpha"/>
      <feGaussianBlur stdDeviation="2" result="blur-6"/>
      <feFlood flood-color="#aaa" flood-opacity="0.612"/>
      <feComposite operator="in" in2="blur-6"/>
      <feComposite in="SourceGraphic"/>
    </filter>
    <filter id="Ellipse_2" x="427" y="559" width="466" height="477" filterUnits="userSpaceOnUse">
      <feOffset dx="6" dy="4" input="SourceAlpha"/>
      <feGaussianBlur stdDeviation="2" result="blur-7"/>
      <feFlood flood-color="#b8b8b8" flood-opacity="0.522"/>
      <feComposite operator="in" in2="blur-7"/>
      <feComposite in="SourceGraphic"/>
    </filter>
    <filter id="Ellipse_4" x="1041" y="559" width="467" height="477" filterUnits="userSpaceOnUse">
      <feOffset dx="6" dy="4" input="SourceAlpha"/>
      <feGaussianBlur stdDeviation="2" result="blur-8"/>
      <feFlood flood-color="#aaa" flood-opacity="0.659"/>
      <feComposite operator="in" in2="blur-8"/>
      <feComposite in="SourceGraphic"/>
    </filter>
    <clipPath id="clip-Web_1920_1">
      <rect width="1920" height="1080"/>
    </clipPath>
  </defs>
  <g id="Web_1920_1" data-name="Web 1920 – 1" class="cls-1">
    <rect width="1920" height="1080"/>
    <g id="Group_2" data-name="Group 2" transform="translate(-265 -252)">
      <g id="Group_1" data-name="Group 1" transform="translate(324 310.177)">
        <path id="Path_1" data-name="Path 1" class="cls-2" d="M1425.347,744.449l-42.006,75.335H245.615L218,744.449V178.67H1425.347Z" transform="translate(78.325 -9.564)"/>
        <g class="cls-35" transform="matrix(1, 0, 0, 1, -59, -58.18)">
          <g id="Rectangle_5-3" data-name="Rectangle 5" class="cls-3" transform="translate(1428 58)">
            <rect class="cls-23" width="277" height="197" rx="46"/>
            <rect class="cls-24" x="2" y="2" width="273" height="193" rx="44"/>
          </g>
        </g>
        <g class="cls-34" transform="matrix(1, 0, 0, 1, -59, -58.18)">
          <g id="Rectangle_4-3" data-name="Rectangle 4" class="cls-4" transform="translate(1418 121)">
            <rect class="cls-23" width="295" height="196" rx="46"/>
            <rect class="cls-24" x="2" y="2" width="291" height="192" rx="44"/>
          </g>
        </g>
        <g class="cls-33" transform="matrix(1, 0, 0, 1, -59, -58.18)">
          <g id="Ellipse_3-3" data-name="Ellipse 3" class="cls-5" transform="translate(1268 184)">
            <ellipse class="cls-23" cx="297" cy="304.5" rx="297" ry="304.5"/>
            <ellipse class="cls-24" cx="297" cy="304.5" rx="295" ry="302.5"/>
          </g>
        </g>
        <g class="cls-32" transform="matrix(1, 0, 0, 1, -59, -58.18)">
          <g id="Rectangle_5-4" data-name="Rectangle 5" class="cls-3" transform="translate(219 58)">
            <rect class="cls-23" width="276" height="197" rx="46"/>
            <rect class="cls-24" x="2" y="2" width="272" height="193" rx="44"/>
          </g>
        </g>
        <g class="cls-31" transform="matrix(1, 0, 0, 1, -59, -58.18)">
          <g id="Rectangle_4-4" data-name="Rectangle 4" class="cls-6" transform="translate(210 121)">
            <rect class="cls-23" width="295" height="196" rx="46"/>
            <rect class="cls-24" x="2" y="2" width="291" height="192" rx="44"/>
          </g>
        </g>
        <g class="cls-30" transform="matrix(1, 0, 0, 1, -59, -58.18)">
          <g id="Ellipse_3-4" data-name="Ellipse 3" class="cls-7" transform="translate(59 180)">
            <ellipse class="cls-23" cx="297" cy="304" rx="297" ry="304"/>
            <ellipse class="cls-24" cx="297" cy="304" rx="295" ry="302"/>
          </g>
        </g>
        <g id="Union_1" data-name="Union 1" class="cls-8" transform="translate(90.897 216.197)">
          <path class="cls-23" d="M 232.5554962158203 418.1551208496094 L 178.2999114990234 418.1551208496094 C 170.8740692138672 418.1551208496094 163.6714477539063 416.7012329101563 156.8921203613281 413.8338012695313 C 153.633544921875 412.4555969238281 150.4905395507813 410.7496032714844 147.5503845214844 408.7632751464844 C 144.6376495361328 406.7954406738281 141.8985443115234 404.5354919433594 139.4092254638672 402.0461120605469 C 136.9198608398438 399.5567932128906 134.659912109375 396.8176879882813 132.6920776367188 393.9049682617188 C 130.7057495117188 390.9647521972656 128.999755859375 387.8217468261719 127.6215438842773 384.563232421875 C 124.7541275024414 377.7838439941406 123.3002319335938 370.5812377929688 123.3002319335938 363.1553955078125 L 123.3002319335938 296.1098937988281 L 123.3002319335938 294.1098937988281 L 121.3002319335938 294.1098937988281 L 56.99970245361328 294.1098937988281 C 49.57391357421875 294.1098937988281 42.37128448486328 292.6559448242188 35.59191513061523 289.7884826660156 C 32.33338928222656 288.41015625 29.19038772583008 286.7041625976563 26.25017738342285 284.7177429199219 C 23.33744049072266 282.7499084472656 20.59833526611328 280.4898681640625 18.1090202331543 278.00048828125 C 15.61965084075928 275.5110778808594 13.35970401763916 272.7719116210938 11.39186191558838 269.859130859375 C 9.405546188354492 266.9189147949219 7.699545860290527 263.7757873535156 6.321335315704346 260.5172119140625 C 3.453914403915405 253.7378082275391 2.000019550323486 246.5351104736328 2.000019550323486 239.1092681884766 L 2.000019550323486 181.0458068847656 C 2.000019550323486 173.6199645996094 3.453914403915405 166.4172821044922 6.321335315704346 159.6378479003906 C 7.699545860290527 156.3792724609375 9.405546188354492 153.2362213134766 11.39186191558838 150.2959594726563 C 13.35970401763916 147.3831634521484 15.61965084075928 144.6440124511719 18.1090202331543 142.1546478271484 C 20.59833526611328 139.6652221679688 23.33744049072266 137.4052276611328 26.25017738342285 135.4373321533203 C 29.19038772583008 133.4509582519531 32.33338928222656 131.7449645996094 35.59191513061523 130.3666381835938 C 42.37128448486328 127.4991683959961 49.57391357421875 126.0452194213867 56.99970245361328 126.0452194213867 L 121.3002319335938 126.0452194213867 L 123.3002319335938 126.0452194213867 L 123.3002319335938 124.0452194213867 L 123.3002319335938 56.99969863891602 C 123.3002319335938 49.57385635375977 124.7541275024414 42.37117004394531 127.6215438842773 35.59175109863281 C 128.999755859375 32.33317184448242 130.7057495117188 29.19011878967285 132.6920776367188 26.24985504150391 C 134.659912109375 23.33706474304199 136.9198608398438 20.59790802001953 139.4092254638672 18.10853958129883 C 141.8985443115234 15.61911773681641 144.6376495361328 13.35911750793457 147.5503845214844 11.39122295379639 C 150.4906005859375 9.404854774475098 153.6336059570313 7.698854923248291 156.8921203613281 6.320538997650146 C 163.6714935302734 3.453065395355225 170.8741302490234 1.999117970466614 178.2999114990234 1.999117970466614 L 232.5554962158203 1.999117970466614 C 239.9812774658203 1.999117970466614 247.1839141845703 3.453065395355225 253.9632873535156 6.320538997650146 C 257.2218017578125 7.698854923248291 260.3648071289063 9.404854774475098 263.3050231933594 11.39122295379639 C 266.2177429199219 13.35911750793457 268.9568481445313 15.61911773681641 271.4462280273438 18.10853958129883 C 273.935546875 20.59790802001953 276.195556640625 23.33706474304199 278.163330078125 26.24985504150391 C 280.1496887207031 29.19011878967285 281.8556518554688 32.33317184448242 283.2339172363281 35.59175109863281 C 286.1013488769531 42.37117004394531 287.5552368164063 49.57385635375977 287.5552368164063 56.99969863891602 L 287.5552368164063 124.0452194213867 L 287.5552368164063 126.0452194213867 L 289.5552368164063 126.0452194213867 L 353.8547973632813 126.0452194213867 C 361.2806396484375 126.0452194213867 368.4832763671875 127.4991683959961 375.2627563476563 130.3666381835938 C 378.5213317871094 131.7449645996094 381.6643981933594 133.4509582519531 384.6045837402344 135.4373779296875 C 387.5174255371094 137.4052276611328 390.2565307617188 139.6652221679688 392.7459716796875 142.1546478271484 C 395.2353820800781 144.6440582275391 397.4953918457031 147.3831634521484 399.4632263183594 150.2960052490234 C 401.4496459960938 153.2362213134766 403.1556396484375 156.3792724609375 404.5339660644531 159.6378479003906 C 407.4014282226563 166.4173278808594 408.8553771972656 173.6199645996094 408.8553771972656 181.0458068847656 L 408.8553771972656 239.1092681884766 C 408.8553771972656 246.5351104736328 407.4014282226563 253.7377471923828 404.5339660644531 260.5172119140625 C 403.1556396484375 263.7757873535156 401.4496459960938 266.9188537597656 399.4632263183594 269.8590698242188 C 397.4953918457031 272.7719116210938 395.2353210449219 275.5110778808594 392.7459716796875 278.0004272460938 C 390.2565307617188 280.4898681640625 387.5174255371094 282.7499084472656 384.6045837402344 284.7177429199219 C 381.6643981933594 286.7041625976563 378.5213317871094 288.41015625 375.2627563476563 289.7884216308594 C 368.4832763671875 292.6559448242188 361.2806396484375 294.1098937988281 353.8547973632813 294.1098937988281 L 289.5552368164063 294.1098937988281 L 287.5552368164063 294.1098937988281 L 287.5552368164063 296.1098937988281 L 287.5552368164063 363.1553955078125 C 287.5552368164063 370.5812377929688 286.1013488769531 377.7838439941406 283.2339172363281 384.563232421875 C 281.855712890625 387.8217468261719 280.1496887207031 390.9647521972656 278.163330078125 393.9049682617188 C 276.195556640625 396.8176879882813 273.935546875 399.5567932128906 271.4462280273438 402.0461120605469 C 268.9568481445313 404.5354919433594 266.2178039550781 406.7954406738281 263.3050231933594 408.7632751464844 C 260.3648681640625 410.7496032714844 257.2218627929688 412.4555969238281 253.9633331298828 413.8338012695313 C 247.1839599609375 416.7012329101563 239.9813385009766 418.1551208496094 232.5554962158203 418.1551208496094 Z"/>
          <path class="cls-25" d="M 232.5555419921875 416.1551208496094 C 239.7122650146484 416.1551208496094 246.6527557373047 414.75439453125 253.1842041015625 411.9917907714844 C 259.4949340820313 409.3226318359375 265.163330078125 405.5006103515625 270.031982421875 400.6318969726563 C 274.9006958007813 395.7632141113281 278.7227172851563 390.0948486328125 281.3918762207031 383.7841186523438 C 284.1544799804688 377.2526245117188 285.5552062988281 370.3121032714844 285.5552062988281 363.1553955078125 L 285.5552062988281 296.1098937988281 L 285.5552062988281 292.1098937988281 L 289.5552062988281 292.1098937988281 L 353.8548278808594 292.1098937988281 C 361.0115356445313 292.1098937988281 367.9520263671875 290.7091064453125 374.483642578125 287.9464416503906 C 380.79443359375 285.2771606445313 386.4629821777344 281.4550476074219 391.3317565917969 276.5862426757813 C 396.2005920410156 271.7174377441406 400.022705078125 266.0488891601563 402.6919860839844 259.7381286621094 C 405.4546508789063 253.2065124511719 406.8554382324219 246.2660064697266 406.8554382324219 239.1092834472656 L 406.8554382324219 181.0457916259766 C 406.8554382324219 173.8891143798828 405.4546508789063 166.9485626220703 402.6919860839844 160.4169464111328 C 400.022705078125 154.1061706542969 396.2005920410156 148.4376678466797 391.3317565917969 143.5688934326172 C 386.4629821777344 138.7000579833984 380.79443359375 134.8779449462891 374.483642578125 132.2086791992188 C 367.9520263671875 129.4460144042969 361.0115356445313 128.0452270507813 353.8548278808594 128.0452270507813 L 289.5552062988281 128.0452270507813 L 285.5552062988281 128.0452270507813 L 285.5552062988281 124.0452270507813 L 285.5552062988281 56.99972915649414 C 285.5552062988281 49.8430061340332 284.1544799804688 42.90245056152344 281.3918762207031 36.37084197998047 C 278.7227172851563 30.06006240844727 274.900634765625 24.39150619506836 270.031982421875 19.52272987365723 C 265.1632690429688 14.65395164489746 259.494873046875 10.83184051513672 253.1842041015625 8.162562370300293 C 246.6527099609375 5.399895668029785 239.7122039794922 3.999117851257324 232.5555419921875 3.999117851257324 L 178.2999267578125 3.999117851257324 C 171.1432647705078 3.999117851257324 164.2027587890625 5.399895668029785 157.6712646484375 8.162562370300293 C 151.3605346679688 10.83184051513672 145.6921539306641 14.65395164489746 140.8234252929688 19.52272987365723 C 135.9547576904297 24.39150619506836 132.1327056884766 30.06006240844727 129.4635314941406 36.37084197998047 C 126.700927734375 42.90245056152344 125.3002014160156 49.8430061340332 125.3002014160156 56.99972915649414 L 125.3002014160156 124.0452270507813 L 125.3002014160156 128.0452270507813 L 121.3002014160156 128.0452270507813 L 56.99970245361328 128.0452270507813 C 49.84303665161133 128.0452270507813 42.90253829956055 129.4460144042969 36.37103652954102 132.2086791992188 C 30.0603141784668 134.8779449462891 24.39192581176758 138.7000579833984 19.5232048034668 143.56884765625 C 14.65453720092773 148.4376220703125 10.83248138427734 154.1061706542969 8.163314819335938 160.4169464111328 C 5.400703907012939 166.9485015869141 3.999981641769409 173.8890686035156 3.999981641769409 181.0457916259766 L 3.999981641769409 239.1092834472656 C 3.999981641769409 246.2660064697266 5.400703907012939 253.2065582275391 8.163314819335938 259.7381591796875 C 10.83248138427734 266.0489501953125 14.65453720092773 271.7174987792969 19.5232048034668 276.5862731933594 C 24.39192581176758 281.4550476074219 30.0603141784668 285.2771606445313 36.37103652954102 287.9464416503906 C 42.90253829956055 290.7091064453125 49.84303665161133 292.1098937988281 56.99970245361328 292.1098937988281 L 121.3002014160156 292.1098937988281 L 125.3002014160156 292.1098937988281 L 125.3002014160156 296.1098937988281 L 125.3002014160156 363.1553955078125 C 125.3002014160156 370.3121032714844 126.700927734375 377.2526245117188 129.4635314941406 383.7841186523438 C 132.1327056884766 390.0948486328125 135.9546966552734 395.7632141113281 140.8234252929688 400.6318969726563 C 145.6920928955078 405.5006103515625 151.3604888916016 409.3226318359375 157.6712036132813 411.9917907714844 C 164.2026977539063 414.75439453125 171.1432037353516 416.1551208496094 178.2999267578125 416.1551208496094 L 232.5555419921875 416.1551208496094 M 232.5555419921875 420.1551208496094 L 178.2999267578125 420.1551208496094 C 146.8197021484375 420.1551208496094 121.3002014160156 394.6356201171875 121.3002014160156 363.1553955078125 L 121.3002014160156 296.1098937988281 L 56.99970245361328 296.1098937988281 C 25.51948165893555 296.1098937988281 -1.836480078054592e-05 270.5895080566406 -1.836480078054592e-05 239.1092834472656 L -1.836480078054592e-05 181.0457916259766 C -1.836480078054592e-05 149.5656127929688 25.51948165893555 124.0452270507813 56.99970245361328 124.0452270507813 L 121.3002014160156 124.0452270507813 L 121.3002014160156 56.99972915649414 C 121.3002014160156 25.51950645446777 146.8197021484375 -0.0008820800576359034 178.2999267578125 -0.0008820800576359034 L 232.5555419921875 -0.0008820800576359034 C 264.0357055664063 -0.0008820800576359034 289.5552062988281 25.51950645446777 289.5552062988281 56.99972915649414 L 289.5552062988281 124.0452270507813 L 353.8548278808594 124.0452270507813 C 385.3350219726563 124.0452270507813 410.8554382324219 149.5656127929688 410.8554382324219 181.0457916259766 L 410.8554382324219 239.1092834472656 C 410.8554382324219 270.5895080566406 385.3350219726563 296.1098937988281 353.8548278808594 296.1098937988281 L 289.5552062988281 296.1098937988281 L 289.5552062988281 363.1553955078125 C 289.5552062988281 394.6356201171875 264.0357055664063 420.1551208496094 232.5555419921875 420.1551208496094 Z"/>
        </g>
        <g class="cls-29" transform="matrix(1, 0, 0, 1, -59, -58.18)">
          <g id="Ellipse_2-2" data-name="Ellipse 2" class="cls-9" transform="translate(427 561)">
            <ellipse class="cls-23" cx="227" cy="232.5" rx="227" ry="232.5"/>
            <ellipse class="cls-24" cx="227" cy="232.5" rx="225" ry="230.5"/>
          </g>
        </g>
        <g id="Ellipse_5" data-name="Ellipse 5" class="cls-10" transform="translate(1437 234.823)">
          <ellipse class="cls-23" cx="63.5" cy="64.5" rx="63.5" ry="64.5"/>
          <ellipse class="cls-24" cx="63.5" cy="64.5" rx="61.5" ry="62.5"/>
        </g>
        <g id="Ellipse_7" data-name="Ellipse 7" class="cls-10" transform="translate(1564 363.823)">
          <ellipse class="cls-23" cx="63.5" cy="65.5" rx="63.5" ry="65.5"/>
          <ellipse class="cls-24" cx="63.5" cy="65.5" rx="61.5" ry="63.5"/>
        </g>
        <g id="Ellipse_9" data-name="Ellipse 9" class="cls-10" transform="translate(1309 363.823)">
          <ellipse class="cls-23" cx="64" cy="65.5" rx="64" ry="65.5"/>
          <ellipse class="cls-24" cx="64" cy="65.5" rx="62" ry="63.5"/>
        </g>
        <g id="Ellipse_6" data-name="Ellipse 6" class="cls-10" transform="translate(1437 494.823)">
          <ellipse class="cls-23" cx="63.5" cy="65" rx="63.5" ry="65"/>
          <ellipse class="cls-24" cx="63.5" cy="65" rx="61.5" ry="63"/>
        </g>
        <g class="cls-28" transform="matrix(1, 0, 0, 1, -59, -58.18)">
          <g id="Ellipse_4-2" data-name="Ellipse 4" class="cls-11" transform="translate(1041 561)">
            <ellipse class="cls-23" cx="227.5" cy="232.5" rx="227.5" ry="232.5"/>
            <ellipse class="cls-24" cx="227.5" cy="232.5" rx="225.5" ry="230.5"/>
          </g>
        </g>
        <g id="Polygon_1" data-name="Polygon 1" class="cls-12" transform="matrix(-1, 0.017, -0.017, -1, 351.379, 588.93)">
          <path class="cls-23" d="M 101.8255996704102 83.47624969482422 L 3.582821369171143 83.47624969482422 L 52.7042121887207 3.810667991638184 L 101.8255996704102 83.47624969482422 Z"/>
          <path class="cls-26" d="M 52.7042121887207 7.621322631835938 L 7.165641784667969 81.47626495361328 L 98.24278259277344 81.47626495361328 L 52.7042121887207 7.621322631835938 M 52.7042121887207 -7.62939453125e-06 L 105.4084320068359 85.47626495361328 L -7.62939453125e-06 85.47626495361328 L 52.7042121887207 -7.62939453125e-06 Z"/>
        </g>
        <g id="Polygon_2" data-name="Polygon 2" class="cls-12" transform="translate(475.392 377.009) rotate(90)">
          <path class="cls-23" d="M 104.1586303710938 81.62538909912109 L 3.669031143188477 81.62538909912109 L 53.91382217407227 3.69100284576416 L 104.1586303710938 81.62538909912109 Z"/>
          <path class="cls-26" d="M 53.91382217407227 7.382049560546875 L 7.338081359863281 79.62538146972656 L 100.4895629882813 79.62538146972656 L 53.91382217407227 7.382049560546875 M 53.91382217407227 0 L 107.82763671875 83.62538909912109 L 7.62939453125e-06 83.62538909912109 L 53.91382217407227 0 Z"/>
        </g>
        <g id="Polygon_3" data-name="Polygon 3" class="cls-12" transform="translate(245 258.823)">
          <path class="cls-23" d="M 103.3779907226563 83 L 3.622010231018066 83 L 53.5 3.754595756530762 L 103.3779907226563 83 Z"/>
          <path class="cls-26" d="M 53.5 7.509201049804688 L 7.244026184082031 81 L 99.75597381591797 81 L 53.5 7.509201049804688 M 53.5 0 L 107 85 L 0 85 L 53.5 0 Z"/>
        </g>
        <g id="Polygon_4" data-name="Polygon 4" class="cls-12" transform="translate(120.893 484.836) rotate(-90)">
          <path class="cls-23" d="M 104.1586303710938 81.62538909912109 L 3.669031143188477 81.62538909912109 L 53.91382217407227 3.69100284576416 L 104.1586303710938 81.62538909912109 Z"/>
          <path class="cls-26" d="M 53.91382217407227 7.382049560546875 L 7.338081359863281 79.62538146972656 L 100.4895629882813 79.62538146972656 L 53.91382217407227 7.382049560546875 M 53.91382217407227 0 L 107.82763671875 83.62538909912109 L 7.62939453125e-06 83.62538909912109 L 53.91382217407227 0 Z"/>
        </g>
        <g id="Polygon_5" data-name="Polygon 5" class="cls-8" transform="translate(1157.121 324.954) rotate(90)">
          <path class="cls-23" d="M 73.93721008300781 120.6567687988281 L 1.3562331199646 120.6567687988281 L 37.64672088623047 3.38270902633667 L 73.93721008300781 120.6567687988281 Z"/>
          <path class="cls-27" d="M 37.64672088623047 6.765464782714844 L 2.712478637695313 119.6567687988281 L 72.58096313476563 119.6567687988281 L 37.64672088623047 6.765464782714844 M 37.64672088623047 7.62939453125e-06 L 75.29343414306641 121.6567687988281 L 7.62939453125e-06 121.6567687988281 L 37.64672088623047 7.62939453125e-06 Z"/>
        </g>
        <g id="Rectangle_6" data-name="Rectangle 6" class="cls-13" transform="translate(813 494.823)">
          <rect class="cls-23" width="173" height="100" rx="33"/>
          <rect class="cls-24" x="1" y="1" width="171" height="98" rx="32"/>
        </g>
        <g id="Rectangle_7" data-name="Rectangle 7" class="cls-13" transform="translate(667.185 324.024)">
          <rect class="cls-23" width="121.657" height="77.153" rx="33"/>
          <rect class="cls-24" x="1" y="1" width="119.657" height="75.153" rx="32"/>
        </g>
        <g id="Ellipse_10" data-name="Ellipse 10" class="cls-14" transform="translate(1056 545.823)">
          <ellipse class="cls-23" cx="154.5" cy="157.5" rx="154.5" ry="157.5"/>
          <ellipse class="cls-24" cx="154.5" cy="157.5" rx="152.5" ry="155.5"/>
        </g>
        <g id="Ellipse_11" data-name="Ellipse 11" class="cls-14" transform="translate(436 550.823)">
          <ellipse class="cls-23" cx="155" cy="158" rx="155" ry="158"/>
          <ellipse class="cls-24" cx="155" cy="158" rx="153" ry="156"/>
        </g>
        <text id="_12" data-name="12" class="cls-15" transform="translate(270 329.823)"><tspan x="0" y="0">12</tspan></text>
      </g>
      <text id="_1" data-name="1" class="cls-16" transform="translate(1944 755)"><tspan x="0" y="0">1</tspan></text>
      <text id="_2" data-name="2" class="cls-16" transform="translate(1814 618)"><tspan x="0" y="0">2</tspan></text>
      <text id="_3" data-name="3" class="cls-16" transform="translate(1685 755)"><tspan x="0" y="0">3</tspan></text>
      <text id="_4" data-name="4" class="cls-17" transform="translate(615 414)"><tspan x="0" y="0">4</tspan></text>
      <text id="_5" data-name="5" class="cls-18" transform="translate(1826 414)"><tspan x="0" y="0">5</tspan></text>
      <text id="_6" data-name="6" class="cls-18" transform="translate(615 353)"><tspan x="0" y="0">6</tspan></text>
      <text id="_7" data-name="7" class="cls-18" transform="translate(1826 353)"><tspan x="0" y="0">7</tspan></text>
      <text id="_8" data-name="8" class="cls-16" transform="translate(1041 678)"><tspan x="0" y="0">8</tspan></text>
      <text id="_9" data-name="9" class="cls-16" transform="translate(1372 678)"><tspan x="0" y="0">9</tspan></text>
      <text id="_10" data-name="10" class="cls-19" transform="translate(897 967)"><tspan x="0" y="0">10</tspan></text>
      <text id="_11" data-name="11" class="cls-20" transform="translate(1505 967)"><tspan x="0" y="0">11</tspan></text>
      <text id="_13" data-name="13" class="cls-21" transform="translate(602 858)"><tspan x="0" y="0">13</tspan></text>
      <text id="_14" data-name="14" class="cls-21" transform="translate(476 756)"><tspan x="0" y="0">14</tspan></text>
      <text id="_15" data-name="15" class="cls-21" transform="translate(716 756)"><tspan x="0" y="0">15</tspan></text>
      <text id="_16" data-name="16" class="cls-19" transform="translate(1205 858)"><tspan x="0" y="0">16</tspan></text>
      <text id="_0" data-name="0" class="cls-16" transform="translate(1814 886)"><tspan x="0" y="0">0</tspan></text>
      <text id="Left_Axis" data-name="Left Axis" class="cls-18" transform="translate(838 1056)"><tspan x="0" y="0">Left Axis</tspan></text>
      <text id="Right_Axis" data-name="Right Axis" class="cls-22" transform="translate(1431 1055)"><tspan x="0" y="0">Right Axis</tspan></text>
    </g>
  </g>
</svg>
