<?xml version="1.0" encoding="UTF-8" standalone="no"?>
<!-- Created with Inkscape (http://www.inkscape.org/) -->

<svg
   width="96mm"
   height="96mm"
   viewBox="-16 -16 128 128"
   version="1.1"
   xml:space="preserve"
   xmlns="http://www.w3.org/2000/svg"
   xmlns:svg="http://www.w3.org/2000/svg"><g
     transform="translate(-35.459521,-31.525935)"><g
       transform="matrix(2.0616355,0,0,2.0616355,-37.645089,-33.469054)"><path
         style="fill:#000000;fill-opacity:1;stroke:none;stroke-width:3.14423;stroke-linecap:round"
         d="M 56.750058,31.607675 A 23.323486,23.323486 0 0 1 81.942668,52.897435 23.323486,23.323486 0 0 1 60.654034,78.090995 23.323486,23.323486 0 0 1 35.459522,56.803487 23.323486,23.323486 0 0 1 56.745905,31.608024 Z" /><g
         transform="translate(0.90024634,-0.96640423)"><path
           style="fill:#ffffff;stroke-width:3;stroke-linecap:round"
           d="m 52.00318,36.123411 h 10.234221 a 1.5875,1.5875 45 0 1 1.5875,1.5875 l 0,7.095894 a 4.1199471,4.1199471 111.0727 0 1 -1.065235,2.764543 l -4.574141,5.054247 a 1.4367023,1.4367023 2.1258345e-6 0 1 -2.13047,0 l -4.57414,-5.054247 A 4.1199476,4.1199476 68.927306 0 1 50.41568,44.806805 l 0,-7.095894 a 1.5875,1.5875 135 0 1 1.5875,-1.5875 z"
           transform="translate(0.51083209,-0.52916663)" /><path
           style="fill:#ffffff;stroke-width:3;stroke-linecap:round"
           d="m 52.00318,36.123411 h 10.234221 a 1.5875,1.5875 45 0 1 1.5875,1.5875 l 0,7.095894 a 4.1199471,4.1199471 111.0727 0 1 -1.065235,2.764543 l -4.574141,5.054247 a 1.4367023,1.4367023 2.1258345e-6 0 1 -2.13047,0 l -4.57414,-5.054247 A 4.1199476,4.1199476 68.927306 0 1 50.41568,44.806805 l 0,-7.095894 a 1.5875,1.5875 135 0 1 1.5875,-1.5875 z"
           transform="rotate(90,57.566292,56.36531)" /><path
           style="fill:#ffffff;stroke-width:3;stroke-linecap:round"
           d="m 52.00318,36.123411 h 10.234221 a 1.5875,1.5875 45 0 1 1.5875,1.5875 l 0,7.095894 a 4.1199471,4.1199471 111.0727 0 1 -1.065235,2.764543 l -4.574141,5.054247 a 1.4367023,1.4367023 2.1258345e-6 0 1 -2.13047,0 l -4.57414,-5.054247 A 4.1199476,4.1199476 68.927306 0 1 50.41568,44.806805 l 0,-7.095894 a 1.5875,1.5875 135 0 1 1.5875,-1.5875 z"
           transform="matrix(0,1,1,0,1.669921,-1.2009828)" /><path
           style="fill:#ffffff;stroke-width:3;stroke-linecap:round"
           d="m 52.00318,36.123411 h 10.234221 a 1.5875,1.5875 45 0 1 1.5875,1.5875 l 0,7.095894 a 4.1199471,4.1199471 111.0727 0 1 -1.065235,2.764543 l -4.574141,5.054247 a 1.4367023,1.4367023 2.1258345e-6 0 1 -2.13047,0 l -4.57414,-5.054247 A 4.1199476,4.1199476 68.927306 0 1 50.41568,44.806805 l 0,-7.095894 a 1.5875,1.5875 135 0 1 1.5875,-1.5875 z"
           transform="matrix(1,0,0,-1,0.51083209,112.16082)" /></g></g></g></svg>
