<?xml version="1.0" encoding="UTF-8" standalone="no"?>
<svg
   width="50"
   height="50"
   viewBox="-5 -5 60 60"
   version="1.1"
   id="svg1"
   xmlns="http://www.w3.org/2000/svg"
   xmlns:svg="http://www.w3.org/2000/svg">
  <defs
     id="defs1" />
  <path
     d="M 25.090986,1.4737903e-4 C 23.423727,-0.01025262 21.757725,0.49165738 20.726011,1.5191574 c -1.51195,1.50579 0.0023,6.40067 0.0023,6.40067 L 16.556163,9.712767 c 0,0 -2.545973,-4.4280096 -4.688793,-4.3976796 -2.9123179,0.0412 -6.1013489,3.24452 -6.2006369,6.1545796 -0.07344,2.15238 4.2650437,4.85411 4.2650437,4.85411 l -1.9505377,4.28225 c 0,0 -4.905459,-1.56685 -6.43156,-0.0615 -2.07328498,2.04507 -2.04795398,6.6321 -0.0337,8.7353 1.49171,1.55757 6.465847,0.25634 6.465847,0.25634 l 1.7700197,4.31916 c 0,0 -4.4890087,2.43923 -4.4842457,4.57404 0.0058,2.61178 2.899757,5.48283 5.5107979,5.57158 2.013502,0.0684 4.53172,-3.99807 4.53172,-3.99807 l 5.170567,2.04166 c 0,0 -1.450572,4.90105 0.06447,6.40653 2.065733,2.05268 6.650311,2.06596 8.737567,0.0352 1.534677,-1.49318 0.148576,-6.42118 0.148576,-6.42118 l 4.32043,-1.7695 c 0,0 2.533379,4.46594 4.685571,4.44133 2.912418,-0.0333 6.162737,-3.24192 6.201809,-6.15341 0.02873,-2.14026 -4.435892,-4.64435 -4.435892,-4.64435 l 1.80372,-4.30539 c 0,0 4.950004,1.36675 6.45442,-0.17197 2.035865,-2.0823 2.055974,-6.64007 0.03311,-8.735 -1.492632,-1.54581 -6.444453,-0.20303 -6.444453,-0.20303 l -1.769727,-4.31945 c 0,0 4.480732,-2.48604 4.465194,-4.62971 C 44.72437,8.6622374 41.501372,5.4247574 38.588511,5.3734474 36.439614,5.3356474 33.887995,9.785487 33.887995,9.785487 l -4.30695,-1.8020196 c 0,0 1.409172,-4.92332 -0.11722,-6.42791 C 28.426833,0.53337738 26.758197,0.01063738 25.090939,2.0737903e-4 Z M 25.000136,16.536477 a 8.46586,8.4633742 0 0 1 8.465617,8.46342 8.46586,8.4633742 0 0 1 -8.465617,8.46342 8.46586,8.4633742 0 0 1 -8.46591,-8.46342 8.46586,8.4633742 0 0 1 8.46591,-8.46342 z"
     id="path1" />
</svg>
