<?xml version="1.0" encoding="UTF-8" standalone="no"?>
<!-- Created with Inkscape (http://www.inkscape.org/) -->

<svg
   width="55.74041mm"
   height="57.037003mm"
   viewBox="0 0 55.74041 57.037002"
   version="1.1"
   id="svg1"
   sodipodi:docname="thumbstick.svg"
   xml:space="preserve"
   inkscape:version="1.3.2 (091e20e, 2023-11-25)"
   xmlns:inkscape="http://www.inkscape.org/namespaces/inkscape"
   xmlns:sodipodi="http://sodipodi.sourceforge.net/DTD/sodipodi-0.dtd"
   xmlns="http://www.w3.org/2000/svg"
   xmlns:svg="http://www.w3.org/2000/svg"><sodipodi:namedview
     id="namedview1"
     pagecolor="#ffffff"
     bordercolor="#000000"
     borderopacity="0.25"
     inkscape:showpageshadow="2"
     inkscape:pageopacity="0.0"
     inkscape:pagecheckerboard="0"
     inkscape:deskcolor="#d1d1d1"
     inkscape:document-units="mm"
     inkscape:zoom="0.47908825"
     inkscape:cx="169.07115"
     inkscape:cy="151.32911"
     inkscape:window-width="2080"
     inkscape:window-height="1212"
     inkscape:window-x="904"
     inkscape:window-y="32"
     inkscape:window-maximized="0"
     inkscape:current-layer="layer2" /><defs
     id="defs1" /><g
     inkscape:groupmode="layer"
     id="layer2"
     inkscape:label="Outlines"
     transform="translate(0.10344,1.6218729)"><g
       id="g2"><ellipse
         style="fill:#000000;fill-opacity:1;stroke:#ffffff;stroke-width:1;stroke-linecap:round;stroke-dasharray:none;stroke-opacity:1"
         id="ellipse1"
         cx="26.865198"
         cy="41.393566"
         rx="26.259377"
         ry="13.521564" /><path
         id="path6"
         style="stroke:#ffffff;stroke-width:1;stroke-linecap:round;stroke-dasharray:none;stroke-opacity:1"
         d="m 39.068811,38.059878 c -6e-6,3.20326 -5.441893,5.800011 -12.154799,5.800011 -6.712907,0 -12.154794,-2.596751 -12.1548,-5.800011 v -6.879163 c 0,-3.203256 5.441889,-5.800008 12.1548,-5.800008 6.71291,0 12.154799,2.596752 12.154799,5.800008 z" /><path
         id="path5"
         style="fill:none;fill-opacity:1;stroke:#ffffff;stroke-width:2;stroke-linecap:round;stroke-dasharray:none;stroke-opacity:1"
         d="M 53.024188,2.963009 V 1.92557 2.963009 M 3.930062,13.691467 c 1.290001,1.476008 3.157354,2.807585 5.466762,3.927017 4.618816,2.238865 11.005852,3.629148 18.078735,3.629148 7.055024,0 13.442181,-1.382263 18.065582,-3.617116 2.311701,-1.117427 4.182462,-2.448002 5.475299,-3.925514" /><path
         id="path3-9"
         style="stroke:#ffffff;stroke-width:1;stroke-linecap:round;stroke-dasharray:none;stroke-opacity:1"
         d="m 55.136968,20.581944 c 0,7.307068 -12.254057,13.230615 -27.370206,13.230615 -15.154411,0 -27.370202,-5.957917 -27.370202,-13.230615 v -6.358019 c 0,-7.3070664 12.254057,-13.23061394 27.370202,-13.23061394 15.116149,0 27.370206,5.92354754 27.370206,13.23061394 z" /><ellipse
         style="fill:#000000;fill-opacity:1;stroke:#ffffff;stroke-width:1;stroke-linecap:round;stroke-dasharray:none;stroke-opacity:1"
         id="path8"
         cx="27.466276"
         cy="12.399691"
         rx="26.259377"
         ry="13.521564" /></g></g><g
     inkscape:groupmode="layer"
     id="layer1"
     inkscape:label="Highlights"
     style="display:none"
     transform="translate(0.10344,1.6218729)"><path
       id="rect7"
       style="fill:#ffffff;fill-opacity:1;stroke-width:3.10114;stroke-linecap:round"
       d="m 33.353533,26.902463 c 7.594132,-0.857811 11.502482,-2.299169 15.841987,-4.923055 0.857811,0.70643 1.084877,3.502025 0,4.889658 -3.431235,2.44728 -9.685947,4.494151 -15.841987,4.923056 -0.706432,-0.479365 -1.084875,-3.956161 0,-4.889659 z" /><path
       id="path2"
       style="fill:#ffffff;fill-opacity:1;stroke-width:3.10114;stroke-linecap:round"
       d="m 41.749388,38.720569 c 1.582656,-0.606214 9.447609,4.725832 8.374576,5.54792 -3.154681,3.349492 -5.440669,5.086532 -10.457541,6.810315 -0.595187,-3.565911 -0.256325,-6.384312 -0.852683,-8.258734 1.295498,-0.894351 2.281346,-2.618627 2.935648,-4.099501 z"
       sodipodi:nodetypes="ccccc" /></g></svg>
